:SAMPLES-PER-SECOND 30
:FULLY-SPECIFIED
:DEGREES
316
root  -10.2592 34.0934 -5.54106 -170.036 -1.49713 -176.35
RightUpLeg  -21.9014 -18.3154 5.51674
RightLeg  12.4627 -6.69059 -1.02904
RightFoot  8.81708 0.110226 -0.859863
RightToes  -23.1619 -0.0997772 -0.202194
Spine  -0.892728 0.721867 2.38649
Spine1  -1.73443 1.67788 5.21967
HEad  -65.4528 0.842603 2.33395
LeftShoulder1  -1.94126e-019 -3.10601e-018 -2.51263e-017
LeftArm  -11.297 21.6294 -84.9106
LeftForeArm  29.9852 -30.0298 -4.9442
LeftHand  -0.302985 -0.478614 6.08703
RightShoulder  -4.96962e-017 0 -2.36833e-017
RightArm  -20.2083 -14.6099 71.8983
RightForeArm  48.3515 20.2573 1.90915
RightHand  -0.672618 -0.455884 -15.8089
LeftUpLeg  -12.1097 6.07385 7.74349
LeftLeg  33.5275 5.70737 3.26055
LeftFoot  -2.29218 -0.00563795 -0.1203
LeftToes  -39.8645 2.14545e-006 -7.7278e-009
317
root  -10.6705 33.9427 -4.92289 -169.708 -1.17897 -176.312
RightUpLeg  -24.3764 -17.7878 5.19488
RightLeg  14.6033 -6.72813 -1.29355
RightFoot  9.16057 0.118771 -0.912033
RightToes  -23.4891 -0.10237 -0.205629
Spine  -0.909408 0.644315 2.31517
Spine1  -1.77414 1.52161 5.08561
HEad  -66.7677 1.11532 2.8686
LeftShoulder1  -1.94126e-019 -3.10601e-018 -2.51263e-017
LeftArm  -11.2983 21.6056 -84.6889
LeftForeArm  29.3406 -29.985 -4.94181
LeftHand  -0.319265 -0.473808 6.41558
RightShoulder  -4.96962e-017 0 -2.36833e-017
RightArm  -20.2907 -14.2182 71.8757
RightForeArm  48.4449 20.2847 1.91026
RightHand  -0.673398 -0.518089 -16.0227
LeftUpLeg  -10.1629 4.95532 6.81273
LeftLeg  28.1584 6.67273 3.02376
LeftFoot  -6.51564 -0.0492027 -0.70286
LeftToes  -33.1309 2.14545e-006 -7.7278e-009
318
root  -11.1514 33.8407 -4.23801 -169.411 -0.875534 -177.3
RightUpLeg  -26.9983 -17.6561 3.81539
RightLeg  16.7831 -6.57192 -1.52503
RightFoot  9.85675 0.133272 -0.975176
RightToes  -24.1072 -0.104889 -0.208997
Spine  -0.753961 0.502902 1.85187
Spine1  -1.49807 1.23657 4.14889
HEad  -68.4416 1.42259 3.78031
LeftShoulder1  -1.94126e-019 -3.10601e-018 -2.51263e-017
LeftArm  -11.0665 20.833 -83.9436
LeftForeArm  29.0437 -29.2136 -4.77705
LeftHand  -0.317322 -0.367381 6.48508
RightShoulder  -4.96962e-017 0 -2.36833e-017
RightArm  -20.9856 -13.297 72.4872
RightForeArm  49.2869 19.5943 1.74814
RightHand  -0.742757 -0.299424 -16.9212
LeftUpLeg  -9.46007 4.12478 4.45344
LeftLeg  24.4064 8.88116 3.33947
LeftFoot  -8.82711 -0.116094 -1.34251
LeftToes  -24.8315 2.14545e-006 -7.7278e-009
319
root  -11.6213 33.8126 -3.53072 -169.22 -0.605469 -178.809
RightUpLeg  -29.1666 -18.0779 2.03906
RightLeg  18.0812 -5.86404 -1.5026
RightFoot  11.0726 0.150472 -0.985154
RightToes  -24.5466 -0.108227 -0.212335
Spine  -0.5364 0.396587 1.11826
Spine1  -1.11219 1.01283 2.67919
HEad  -70.3623 1.52841 4.77122
LeftShoulder1  -1.94126e-019 -3.10601e-018 -2.51263e-017
LeftArm  -10.0981 19.5878 -82.6401
LeftForeArm  28.9361 -27.6139 -4.45673
LeftHand  -0.322424 -0.481158 6.46508
RightShoulder  -4.96962e-017 0 -2.36833e-017
RightArm  -22.389 -12.5725 73.6212
RightForeArm  50.2713 18.6163 1.52966
RightHand  -0.759535 -0.403737 -17.6493
LeftUpLeg  -9.17031 2.40469 1.62535
LeftLeg  21.3894 11.5285 3.64809
LeftFoot  -9.17418 -0.159823 -1.83029
LeftToes  -19.2238 2.14545e-006 -7.7278e-009
320
root  -12.0146 33.8285 -2.86275 -169.175 -0.442429 -179.798
RightUpLeg  -30.4765 -18.8572 0.886414
RightLeg  18.0905 -4.44023 -1.13992
RightFoot  12.9022 0.159843 -0.853688
RightToes  -25.39 -0.113499 -0.218684
Spine  -0.263899 0.406685 0.494141
Spine1  -0.612321 1.03104 1.40557
HEad  -72.339 1.53965 5.47571
LeftShoulder1  -1.94126e-019 -3.10601e-018 -2.51263e-017
LeftArm  -8.42768 17.8695 -81.2113
LeftForeArm  29.0309 -25.3949 -4.08024
LeftHand  -0.3257 -0.595485 6.42134
RightShoulder  -4.96962e-017 0 -2.36833e-017
RightArm  -23.458 -12.1768 74.6748
RightForeArm  50.1934 17.5439 1.33975
RightHand  -0.443085 -2.4463 -17.2147
LeftUpLeg  -9.67639 0.667579 -0.183039
LeftLeg  20.3298 13.1374 3.88523
LeftFoot  -8.7012 -0.163442 -1.98653
LeftToes  -18.0627 2.14545e-006 -7.7278e-009
321
root  -12.2827 33.9051 -2.27946 -169.087 -0.282257 179.989
RightUpLeg  -30.7278 -18.2871 0.0425505
RightLeg  17.1491 -0.967456 -0.232359
RightFoot  14.6667 0.0829129 -0.103353
RightToes  -26.3166 -0.119396 -0.225568
Spine  -0.153149 0.591952 0.0979173
Spine1  -0.420189 1.39578 0.600289
HEad  -73.5516 1.0542 6.11664
LeftShoulder1  -1.94126e-019 -3.10601e-018 -2.51263e-017
LeftArm  -6.90086 16.1568 -80.0302
LeftForeArm  30.3291 -22.486 -3.66117
LeftHand  -0.321137 -0.736839 6.19864
RightShoulder  -4.96962e-017 0 -2.36833e-017
RightArm  -24.4226 -12.4519 75.5454
RightForeArm  51.017 16.3979 1.17531
RightHand  -0.748902 -0.792235 -18.8298
LeftUpLeg  -10.882 1.60126 -0.79436
LeftLeg  20.5588 12.2422 3.6779
LeftFoot  -8.05903 -0.131009 -1.69804
LeftToes  -18.0051 2.14545e-006 -7.7278e-009
322
root  -12.4975 34.008 -1.80292 -169.064 -0.275192 -179.99
RightUpLeg  -30.532 -17.7502 -0.580621
RightLeg  17.9136 3.77503 0.955672
RightFoot  12.8331 -0.0529175 0.984456
RightToes  -32.6446 -0.16255 -0.26992
Spine  -0.259285 0.755426 -0.160895
Spine1  -0.637007 1.69504 0.117549
HEad  -73.2487 0.245415 6.38023
LeftShoulder1  -1.94126e-019 -3.10601e-018 -2.51263e-017
LeftArm  -6.27614 15.004 -79.1907
LeftForeArm  33.2675 -19.5416 -3.30412
LeftHand  -0.300118 -0.940984 5.6291
RightShoulder  -4.96962e-017 0 -2.36833e-017
RightArm  -24.6724 -13.3624 75.9751
RightForeArm  52.128 15.1784 1.18829
RightHand  -0.733079 -0.912453 -18.9169
LeftUpLeg  -11.567 2.39946 -1.17612
LeftLeg  20.1679 11.6435 3.41528
LeftFoot  -7.39801 -0.104878 -1.46061
LeftToes  -16.5858 2.14545e-006 -7.7278e-009
323
root  -12.6457 34.1075 -1.41895 -169.301 -0.791031 -179.715
RightUpLeg  -29.6091 -16.9641 -1.13183
RightLeg  20.5422 3.88998 1.17558
RightFoot  8.28514 -0.0141632 0.706774
RightToes  -31.4491 -0.154026 -0.261911
Spine  -0.34984 0.774056 -0.222105
Spine1  -0.812109 1.71338 0.0174467
HEad  -72.2324 -0.659761 6.32735
LeftShoulder1  -1.94126e-019 -3.10601e-018 -2.51263e-017
LeftArm  -6.35151 14.423 -78.7165
LeftForeArm  35.9602 -17.3843 -3.04737
LeftHand  -0.325848 -1.03045 6.02542
RightShoulder  -4.96962e-017 0 -2.36833e-017
RightArm  -24.2588 -14.4536 75.9613
RightForeArm  53.3372 14.365 1.25097
RightHand  -0.443524 -2.43869 -17.1883
LeftUpLeg  -11.9164 2.15914 -1.12018
LeftLeg  19.8921 11.4942 3.31271
LeftFoot  -6.72536 -0.0855883 -1.29502
LeftToes  -15.8384 2.14545e-006 -7.7278e-009
324
root  -12.7367 34.1739 -1.12934 -170.045 -1.55142 -179.424
RightUpLeg  -27.7021 -16.3957 -1.76505
RightLeg  24.1158 0.778677 0.285366
RightFoot  4.61269 0.0125804 0.211487
RightToes  -29.4423 -0.140099 -0.248071
Spine  -0.286121 0.689912 -0.206953
Spine1  -0.68684 1.54067 0.0424651
HEad  -71.0644 -1.29306 6.48329
LeftShoulder1  -1.94126e-019 -3.10601e-018 -2.51263e-017
LeftArm  -7.12378 14.5322 -78.3132
LeftForeArm  36.9702 -16.4027 -2.90645
LeftHand  -0.338728 -0.781574 6.48992
RightShoulder  -4.96962e-017 0 -2.36833e-017
RightArm  -24.0778 -15.3848 75.8679
RightForeArm  54.9202 13.8422 1.2912
RightHand  -0.494729 -2.08673 -17.1873
LeftUpLeg  -11.6688 1.29322 -0.9045
LeftLeg  19.7606 11.6579 3.3305
LeftFoot  -6.23377 -0.0747615 -1.21133
LeftToes  -15.4335 2.14545e-006 -7.7278e-009
325
root  -12.7998 34.2084 -0.900015 -170.665 -2.18185 -179.491
RightUpLeg  -25.5514 -16.3668 -2.5616
RightLeg  27.697 -1.93661 -0.870046
RightFoot  1.89308 0.00698802 0.0988388
RightToes  -27.655 -0.128111 -0.235342
Spine  -0.295574 0.583978 -0.340206
Spine1  -0.716156 1.32366 -0.219561
HEad  -70.1342 -1.69019 6.84824
LeftShoulder1  -1.94126e-019 -3.10601e-018 -2.51263e-017
LeftArm  -7.5521 15.4167 -77.5556
LeftForeArm  35.5726 -16.2815 -2.86829
LeftHand  -0.324738 -0.450175 6.54876
RightShoulder  -4.96962e-017 0 -2.36833e-017
RightArm  -25.4567 -16.2513 76.1754
RightForeArm  56.3905 13.3269 1.34059
RightHand  -0.491747 -2.20522 -17.7062
LeftUpLeg  -11.3084 0.221038 -1.04275
LeftLeg  19.4328 12.1225 3.38695
LeftFoot  -5.80598 -0.0674916 -1.16932
LeftToes  -14.8738 2.14545e-006 -7.7278e-009
326
root  -12.8149 34.2174 -0.707256 -171.09 -2.36092 -179.586
RightUpLeg  -23.0616 -15.3584 -3.39745
RightLeg  30.0888 -2.93098 -1.46403
RightFoot  0.337224 0.000648826 0.163384
RightToes  -26.5413 -0.120844 -0.227223
Spine  -0.408731 0.552928 -0.516267
Spine1  -0.954316 1.25377 -0.551804
HEad  -69.311 -1.78835 7.28495
LeftShoulder1  -1.94126e-019 -3.10601e-018 -2.51263e-017
LeftArm  -7.69973 16.8013 -76.6668
LeftForeArm  33.3965 -16.3274 -2.8237
LeftHand  -0.312133 -0.219661 6.53409
RightShoulder  -4.96962e-017 0 -2.36833e-017
RightArm  -26.8755 -17.3592 76.7541
RightForeArm  56.022 13.3472 1.34243
RightHand  -0.441305 -2.56799 -17.8729
LeftUpLeg  -11.0758 -0.537722 -1.1638
LeftLeg  19.2173 12.6143 3.47141
LeftFoot  -5.51635 -0.0633898 -1.15418
LeftToes  -14.9741 2.14545e-006 -7.7278e-009
327
root  -12.7988 34.2024 -0.529164 -171.232 -2.24084 -179.772
RightUpLeg  -20.384 -13.5923 -4.17556
RightLeg  30.8515 -2.59033 -1.33932
RightFoot  -0.0489154 -0.00184496 0.188517
RightToes  -27.4491 -0.126756 -0.233852
Spine  -0.604116 0.597185 -0.729876
Spine1  -1.35665 1.33136 -0.943849
HEad  -68.6115 -1.93706 7.61717
LeftShoulder1  -1.94126e-019 -3.10601e-018 -2.51263e-017
LeftArm  -7.35216 18.218 -75.8074
LeftForeArm  31.8806 -15.9316 -2.67713
LeftHand  -0.30197 -0.147467 6.39815
RightShoulder  -4.96962e-017 0 -2.36833e-017
RightArm  -27.5551 -18.6485 77.4912
RightForeArm  54.1858 13.8311 1.30386
RightHand  -0.387603 -2.8845 -17.6084
LeftUpLeg  -11.1459 -1.44475 -1.35617
LeftLeg  19.2031 13.4768 3.70056
LeftFoot  -5.39791 -0.0647783 -1.21254
LeftToes  -15.1889 2.14545e-006 -7.7278e-009
328
root  -12.7741 34.1602 -0.40946 -171.428 -1.76479 179.747
RightUpLeg  -17.1708 -11.985 -5.07936
RightLeg  29.4759 -2.0477 -0.998471
RightFoot  -0.0708869 -0.00254396 0.190288
RightToes  -34.2187 -0.174024 -0.280191
Spine  -0.811263 0.715671 -1.0459
Spine1  -1.78556 1.54346 -1.52662
HEad  -67.7435 -2.10526 7.73205
LeftShoulder1  -1.94126e-019 -3.10601e-018 -2.51263e-017
LeftArm  -6.70631 19.4904 -75.0417
LeftForeArm  31.2386 -14.4526 -2.35215
LeftHand  -0.301988 -0.248027 6.29372
RightShoulder  -4.96962e-017 0 -2.36833e-017
RightArm  -27.3645 -20.1468 78.383
RightForeArm  52.3327 14.6425 1.23892
RightHand  -0.370674 -2.94967 -17.2634
LeftUpLeg  -10.9705 -1.73463 -1.86029
LeftLeg  19.0964 14.086 3.83636
LeftFoot  -5.44701 -0.0686768 -1.28207
LeftToes  -15.1387 2.14545e-006 -7.7278e-009
329
root  -12.7266 34.0981 -0.30141 -171.447 -0.934753 179.391
RightUpLeg  -14.2113 -10.5454 -5.71058
RightLeg  25.1726 -0.983538 -0.392627
RightFoot  -2.1579 -0.00620587 0.236523
RightToes  -33.2164 -0.166685 -0.273688
Spine  -1.08954 0.949348 -1.32019
Spine1  -2.3678 1.97734 -2.00165
HEad  -66.7311 -2.31175 7.56103
LeftShoulder1  -1.94126e-019 -3.10601e-018 -2.51263e-017
LeftArm  -6.21605 20.9003 -74.4965
LeftForeArm  31.1633 -13.4103 -2.15903
LeftHand  -0.29285 -0.460976 5.90158
RightShoulder  -4.96962e-017 0 -2.36833e-017
RightArm  -26.3448 -21.8923 79.2197
RightForeArm  50.5075 15.7491 1.19689
RightHand  -0.367157 -2.95472 -17.1298
LeftUpLeg  -11.2466 -1.52141 -2.21527
LeftLeg  19.6115 14.5203 4.09039
LeftFoot  -5.71196 -0.0775204 -1.39225
LeftToes  -15.5077 2.14545e-006 -7.7278e-009
330
root  -12.632 34.0506 -0.207651 -171.604 0.411346 179.332
RightUpLeg  -11.9473 -9.42915 -5.63051
RightLeg  20.2776 -0.970808 -0.291479
RightFoot  -2.6328 -0.00774022 0.254336
RightToes  -31.3887 -0.153599 -0.261501
Spine  -1.33797 1.36532 -1.48502
Spine1  -2.89088 2.79501 -2.29114
HEad  -65.5026 -2.42503 7.28904
LeftShoulder1  -1.94126e-019 -3.10601e-018 -2.51263e-017
LeftArm  -6.76337 22.282 -74.3806
LeftForeArm  31.4444 -12.7495 -2.1058
LeftHand  -0.292332 -0.564275 5.79836
RightShoulder  -4.96962e-017 0 -2.36833e-017
RightArm  -24.4549 -23.6336 79.9302
RightForeArm  48.9337 16.7873 1.27434
RightHand  -0.348165 -3.1351 -17.5048
LeftUpLeg  -11.3925 -0.716982 -2.24736
LeftLeg  20.2241 14.929 4.37279
LeftFoot  -5.93471 -0.0859226 -1.4959
LeftToes  -15.8279 2.14545e-006 -7.7278e-009
